:SAMPLES-PER-SECOND 30
:FULLY-SPECIFIED
:DEGREES
257
root  -7.46112 40.6628 1.58983 52.7031 83.32 50.9006
RightUpLeg  3.02665 -11.3932 -9.75432
RightLeg  9.95838 -3.44455 2.28071
RightFoot  -14.7404 0.0142224 3.84479
RightToes  0.000482159 0.542163 -0.142577
Spine  7.66553 0.0638956 1.44686
Spine1  4.7916 1.16511 -4.01007
HEad  9.973 4.2066 -3.09407
LeftShoulder1  8.0785 -12.2418 -44.6944
LeftArm  -6.04999 24.7011 -26.2387
LeftForeArm  31.2961 -20.1225 -3.47984
LeftHand  -0.25398 0.0180481 5.50724
RightShoulder  4.68413 8.29168 33.7651
RightArm  -2.06284 -9.51252 33.7133
RightForeArm  1.81797 33.1136 7.24512
RightHand  -1.64149 4.28545 -19.8447
LeftUpLeg  -6.55891 1.36922 -4.01731
LeftLeg  1.9292 20.4298 -4.9641
LeftFoot  0.419124 -0.286441 2.75673
LeftToes  1.06246e-005 4.65854e-005 -8.18502e-006
258
root  -7.73201 40.6647 1.73772 57.5626 83.7376 55.8254
RightUpLeg  2.86662 -11.5186 -9.52706
RightLeg  9.96767 -3.84531 2.4084
RightFoot  -15.1141 0.0377208 4.25767
RightToes  0.000482159 0.542163 -0.142577
Spine  7.85705 -0.269124 0.9279
Spine1  4.51364 0.606411 -3.25796
HEad  11.0113 3.85165 -2.05583
LeftShoulder1  8.1051 -12.2911 -44.7018
LeftArm  -5.83482 22.7124 -25.4298
LeftForeArm  32.0979 -20.6982 -3.3854
LeftHand  -0.25398 0.0180481 5.50724
RightShoulder  4.62026 8.14641 33.7124
RightArm  -2.70318 -8.80636 33.6392
RightForeArm  1.46867 32.4589 7.09172
RightHand  -1.88062 5.17074 -20.827
LeftUpLeg  -6.91489 1.33839 -3.85593
LeftLeg  1.79254 19.736 -4.95549
LeftFoot  1.14037 -0.323377 2.89373
LeftToes  1.06246e-005 4.65854e-005 -8.18502e-006
259
root  -7.93615 40.6616 1.86919 59.026 83.8307 57.3603
RightUpLeg  2.6569 -11.557 -9.33014
RightLeg  10.077 -3.79517 2.47594
RightFoot  -15.4852 0.0680854 4.77888
RightToes  0.000482159 0.542163 -0.142577
Spine  8.03582 -0.336155 0.794624
Spine1  4.18667 0.452396 -2.96848
HEad  11.7948 3.42371 -1.426
LeftShoulder1  8.03369 -12.2444 -44.4274
LeftArm  -7.29062 21.0795 -25.2137
LeftForeArm  32.4848 -21.7896 -3.27531
LeftHand  -0.25398 0.0180481 5.50724
RightShoulder  4.60101 8.10821 33.6773
RightArm  -3.34618 -8.44618 33.8262
RightForeArm  0.493254 30.6739 6.68379
RightHand  -2.0609 5.8961 -21.3535
LeftUpLeg  -7.16494 1.43251 -3.65129
LeftLeg  1.72673 19.4393 -5.01666
LeftFoot  1.63157 -0.349765 2.98944
LeftToes  1.06246e-005 4.65854e-005 -8.18502e-006
260
root  -8.07317 40.6466 1.97869 58.2557 83.7832 56.7552
RightUpLeg  2.63624 -11.6751 -9.29343
RightLeg  10.2598 -3.24331 2.61678
RightFoot  -16.0413 0.12598 5.71018
RightToes  0.000482159 0.542163 -0.142577
Spine  8.26712 -0.314165 0.94352
Spine1  4.0486 0.481463 -2.97331
HEad  11.9749 3.19672 -1.24853
LeftShoulder1  8.00045 -12.256 -44.2006
LeftArm  -9.5867 19.9971 -25.2118
LeftForeArm  32.3669 -23.7778 -3.40653
LeftHand  -0.25398 0.0180481 5.50724
RightShoulder  4.64445 8.18793 33.7779
RightArm  -3.48298 -8.08056 34.0783
RightForeArm  -1.28239 28.0361 6.12147
RightHand  -2.15149 6.33334 -21.4641
LeftUpLeg  -7.40351 1.5067 -3.47917
LeftLeg  2.13556 19.6663 -4.84437
LeftFoot  1.83433 -0.353534 2.96503
LeftToes  1.06246e-005 4.65854e-005 -8.18502e-006
261
root  -8.15424 40.614 2.06264 57.088 83.789 55.7094
RightUpLeg  2.71033 -11.8572 -9.333
RightLeg  10.4423 -2.73953 2.87178
RightFoot  -16.8274 0.205286 6.66298
RightToes  0.000482159 0.542163 -0.142577
Spine  8.55471 -0.310329 1.30573
Spine1  3.96959 0.513087 -3.00057
HEad  11.6614 3.21706 -1.39969
LeftShoulder1  8.0466 -12.333 -44.2414
LeftArm  -11.5191 19.2202 -25.1075
LeftForeArm  32.2447 -26.2793 -3.9237
LeftHand  -0.25398 0.0180481 5.50724
RightShoulder  4.69461 8.26355 33.9477
RightArm  -2.81964 -7.56149 34.4208
RightForeArm  -3.30371 24.6742 5.47522
RightHand  -2.15408 6.47576 -21.244
LeftUpLeg  -8.00194 1.79214 -3.3543
LeftLeg  3.47282 19.6479 -4.26394
LeftFoot  1.44237 -0.326289 2.83441
LeftToes  1.06246e-005 4.65854e-005 -8.18502e-006
262
root  -8.19494 40.5531 2.11913 56.1061 83.9602 54.7878
RightUpLeg  2.7513 -12.0051 -9.28966
RightLeg  10.7029 -2.56342 3.17648
RightFoot  -17.648 0.286159 7.36069
RightToes  0.000482159 0.542163 -0.142577
Spine  9.01885 -0.344162 1.86203
Spine1  3.73064 0.489831 -2.91335
HEad  11.1097 3.37602 -1.73095
LeftShoulder1  8.09183 -12.3931 -44.3263
LeftArm  -12.5469 18.5981 -25.1114
LeftForeArm  32.5274 -29.0158 -4.5105
LeftHand  -0.25398 0.0180481 5.50724
RightShoulder  4.73912 8.31404 34.1518
RightArm  -2.43352 -7.05901 34.7617
RightForeArm  -3.42856 20.8351 5.21363
RightHand  -2.03406 6.24055 -20.4869
LeftUpLeg  -9.16047 3.57288 -3.44101
LeftLeg  6.04343 17.6784 -3.07377
LeftFoot  0.358374 -0.255914 2.47068
LeftToes  1.06246e-005 4.65854e-005 -8.18502e-006
263
root  -8.19572 40.4592 2.14665 55.4773 84.335 54.3195
RightUpLeg  2.87295 -12.1766 -9.15923
RightLeg  11.1679 -2.44752 3.48859
RightFoot  -18.3612 0.366596 7.99734
RightToes  0.000482159 0.542163 -0.142577
Spine  9.75465 -0.420276 2.6393
Spine1  3.41383 0.440884 -2.82337
HEad  10.4579 3.49514 -2.08024
LeftShoulder1  8.09903 -12.444 -44.2194
LeftArm  -13.3994 18.1789 -25.4659
LeftForeArm  33.848 -32 -5.12928
LeftHand  -0.25398 0.0180481 5.50724
RightShoulder  4.82831 8.43009 34.5045
RightArm  -4.21562 -6.82896 34.8186
RightForeArm  0.258466 16.9647 5.87484
RightHand  -1.80801 5.63315 -19.2485
LeftUpLeg  -10.9368 8.11977 -4.20091
LeftLeg  9.89411 12.7463 -0.917552
LeftFoot  -0.676655 -0.148606 1.63677
LeftToes  1.06246e-005 4.65854e-005 -8.18502e-006
264
root  -8.13442 40.3476 2.15312 56.124 84.876 55.2271
RightUpLeg  3.09801 -12.4229 -8.98486
RightLeg  11.8781 -2.42958 3.71113
RightFoot  -18.9837 0.431067 8.37495
RightToes  0.000482159 0.542163 -0.142577
Spine  10.5786 -0.514028 3.4977
Spine1  3.21581 0.396097 -2.73761
HEad  9.84464 3.41623 -2.29102
LeftShoulder1  8.12151 -12.5457 -44.0532
LeftArm  -14.1952 17.9375 -26.0718
LeftForeArm  35.8291 -34.9925 -5.75406
LeftHand  -0.25398 0.0180481 5.50724
RightShoulder  4.96688 8.61357 35.0281
RightArm  -6.24521 -7.03044 34.669
RightForeArm  4.62358 13.723 6.46143
RightHand  -1.59539 4.93822 -18.1577
LeftUpLeg  -13.4342 12.7727 -5.39621
LeftLeg  14.7638 7.73515 1.79198
LeftFoot  -0.678932 -0.0455159 0.541623
LeftToes  1.06246e-005 4.65854e-005 -8.18502e-006
265
root  -7.9822 40.2411 2.15362 59.1912 85.4542 58.4417
RightUpLeg  3.22406 -12.5813 -8.73103
RightLeg  12.7374 -2.91954 3.69297
RightFoot  -19.4799 0.436719 7.99024
RightToes  0.000482159 0.542163 -0.142577
Spine  11.2037 -0.556142 4.13793
Spine1  3.08768 0.355063 -2.45769
HEad  9.52533 3.12912 -2.29341
LeftShoulder1  8.17498 -12.6617 -44.024
LeftArm  -14.5208 17.8028 -26.721
LeftForeArm  37.6832 -37.4383 -6.28668
LeftHand  -0.25398 0.0180481 5.50724
RightShoulder  5.09002 8.75271 35.5582
RightArm  -7.401 -7.75198 34.6168
RightForeArm  7.74374 11.4133 6.71894
RightHand  -1.47077 4.38174 -17.6907
LeftUpLeg  -16.3719 12.1843 -5.53101
LeftLeg  20.3358 7.49766 3.49831
LeftFoot  0.153188 0.0135731 -0.147194
LeftToes  1.06246e-005 4.65854e-005 -8.18502e-006
266
root  -7.7254 40.1543 2.15377 64.4751 85.8673 63.6648
RightUpLeg  3.25006 -12.4925 -8.46705
RightLeg  13.4579 -3.82041 3.45995
RightFoot  -19.6812 0.37825 7.00962
RightToes  0.000482159 0.542163 -0.142577
Spine  11.5663 -0.504972 4.39539
Spine1  2.89293 0.338317 -2.01967
HEad  9.68343 2.75716 -2.13204
LeftShoulder1  8.19699 -12.6947 -44.0544
LeftArm  -14.3239 17.8435 -27.3927
LeftForeArm  39.0607 -39.0197 -6.64122
LeftHand  -0.25398 0.0180481 5.50724
RightShoulder  5.15867 8.7943 35.9668
RightArm  -7.84009 -9.04069 34.8779
RightForeArm  9.83309 10.1231 6.74373
RightHand  -1.38363 3.88231 -17.5235
LeftUpLeg  -19.4112 10.7341 -5.42488
LeftLeg  25.4237 7.21544 4.03883
LeftFoot  0.542789 0.0250038 -0.271969
LeftToes  1.06246e-005 4.65854e-005 -8.18502e-006
267
root  -7.37384 40.1081 2.14672 70.0645 85.9333 69.0862
RightUpLeg  3.50865 -12.2576 -8.44768
RightLeg  13.6101 -4.62169 3.22292
RightFoot  -19.4755 0.296599 6.02137
RightToes  0.000482159 0.542163 -0.142577
Spine  11.7545 -0.370309 4.29715
Spine1  2.7188 0.398986 -1.76631
HEad  10.2323 2.40389 -1.91155
LeftShoulder1  8.16296 -12.6347 -44.0333
LeftArm  -13.9504 18.1668 -28.095
LeftForeArm  39.9727 -39.7884 -6.80555
LeftHand  -0.25398 0.0180481 5.50724
RightShoulder  5.18565 8.78091 36.2256
RightArm  -7.87534 -10.775 35.4729
RightForeArm  11.3723 9.78611 6.67156
RightHand  -1.2852 3.39155 -17.178
LeftUpLeg  -21.9267 10.4511 -5.74636
LeftLeg  28.1328 5.788 3.68702
LeftFoot  0.0431574 0.0321882 -0.327747
LeftToes  1.06246e-005 4.65854e-005 -8.18502e-006
268
root  -6.945 40.1064 2.12704 74.6199 85.6449 73.4095
RightUpLeg  4.11163 -12.0805 -8.79805
RightLeg  13.1558 -5.26117 3.05645
RightFoot  -19.1044 0.219478 5.14159
RightToes  0.000482159 0.542163 -0.142577
Spine  11.7981 -0.181378 3.90009
Spine1  2.71256 0.527588 -1.78861
HEad  10.92 2.11577 -1.75032
LeftShoulder1  8.13398 -12.5546 -44.0989
LeftArm  -13.5397 18.7127 -28.6561
LeftForeArm  40.3089 -39.7406 -6.77249
LeftHand  -0.25398 0.0180481 5.50724
RightShoulder  5.17117 8.73375 36.2686
RightArm  -7.46456 -12.6292 36.3597
RightForeArm  12.1543 10.0806 6.6713
RightHand  -1.21529 3.11064 -16.783
LeftUpLeg  -23.5795 10.6329 -6.31984
LeftLeg  27.5853 5.14714 3.24568
LeftFoot  -0.476049 0.0708536 -0.713887
LeftToes  1.06246e-005 4.65854e-005 -8.18502e-006
269
root  -6.44806 40.1054 2.09316 78.9888 85.2128 77.4343
RightUpLeg  4.82124 -11.9942 -9.32794
RightLeg  12.5453 -5.92113 2.87407
RightFoot  -19.0133 0.166898 4.41255
RightToes  0.000482159 0.542163 -0.142577
Spine  11.7407 -0.00465805 3.32324
Spine1  2.80941 0.625497 -1.84687
HEad  11.5567 1.93741 -1.71897
LeftShoulder1  8.15099 -12.4936 -44.3722
LeftArm  -12.91 19.2974 -28.9452
LeftForeArm  39.8921 -38.678 -6.49956
LeftHand  -0.25398 0.0180481 5.50724
RightShoulder  5.11354 8.6485 36.0951
RightArm  -6.43657 -14.3031 37.4053
RightForeArm  12.0584 10.6922 6.80274
RightHand  -1.20113 3.10981 -16.594
LeftUpLeg  -24.6793 10.9532 -7.00848
LeftLeg  24.437 5.4493 3.02488
LeftFoot  -0.584796 0.10494 -1.07702
LeftToes  1.06246e-005 4.65854e-005 -8.18502e-006
270
root  -5.88386 40.0591 2.03669 83.6406 84.8832 81.6783
RightUpLeg  5.56901 -11.9151 -9.80087
RightLeg  12.035 -6.36561 2.7035
RightFoot  -19.3016 0.169943 4.31782
RightToes  0.000482159 0.542163 -0.142577
Spine  11.7033 0.0871607 2.86629
Spine1  2.91072 0.665672 -1.96714
HEad  12.0798 1.86282 -1.75792
LeftShoulder1  8.16973 -12.4364 -44.6459
LeftArm  -11.9729 19.7903 -29.1293
LeftForeArm  38.8681 -36.5163 -5.9775
LeftHand  -0.25398 0.0180481 5.50724
RightShoulder  5.06908 8.58537 35.9508
RightArm  -4.78813 -15.701 38.2868
RightForeArm  11.5904 11.5899 6.94292
RightHand  -1.18456 3.10278 -16.3834
LeftUpLeg  -25.5768 11.458 -7.70262
LeftLeg  20.1809 5.40724 2.56873
LeftFoot  -0.871501 0.109772 -1.14146
LeftToes  1.06246e-005 4.65854e-005 -8.18502e-006
271
root  -5.23958 39.9658 1.94802 87.0488 84.7258 84.7161
RightUpLeg  6.47904 -11.8367 -10.1824
RightLeg  11.5824 -6.45234 2.60999
RightFoot  -19.6993 0.213503 4.74752
RightToes  0.000482159 0.542163 -0.142577
Spine  11.7092 0.119943 2.74681
Spine1  3.11172 0.77239 -2.40548
HEad  12.4902 1.80955 -1.73301
LeftShoulder1  8.14158 -12.3735 -44.6689
LeftArm  -10.8759 20.218 -29.4512
LeftForeArm  37.5929 -33.47 -5.27934
LeftHand  -0.25398 0.0180481 5.50724
RightShoulder  5.09765 8.6153 36.0794
RightArm  -2.6454 -16.7785 38.713
RightForeArm  11.2668 12.7201 6.96256
RightHand  -1.11888 2.86809 -15.9168
LeftUpLeg  -26.2699 11.7075 -7.9692
LeftLeg  15.9131 4.90195 1.65971
LeftFoot  -1.4067 0.115634 -1.2329
LeftToes  1.06246e-005 4.65854e-005 -8.18502e-006
